<?xml version="1.0" encoding="iso-8859-1"?>
<!-- Uploaded to: SVG Repo, www.svgrepo.com, Generator: SVG Repo Mixer Tools -->
<!DOCTYPE svg PUBLIC "-//W3C//DTD SVG 1.1//EN" "http://www.w3.org/Graphics/SVG/1.1/DTD/svg11.dtd">
<svg fill="#000000" height="800px" width="800px" version="1.1" id="Capa_1" xmlns="http://www.w3.org/2000/svg" xmlns:xlink="http://www.w3.org/1999/xlink" 
	 viewBox="0 0 58 58" xml:space="preserve">
<g>
	<path d="M22.046,46.282c-0.287-0.333-0.677-0.602-1.169-0.807s-1.13-0.308-1.914-0.308h-0.957v7.629h1.627
		c1.112,0,1.914-0.355,2.406-1.066s0.738-1.741,0.738-3.09c0-0.419-0.05-0.834-0.15-1.244
		C22.526,46.986,22.333,46.615,22.046,46.282z"/>
	<path d="M51.5,39V13.978c0-0.766-0.092-1.333-0.55-1.792L39.313,0.55C38.964,0.201,38.48,0,37.985,0H8.963
		C7.777,0,6.5,0.916,6.5,2.926V39H51.5z M25.5,34h-8c-0.552,0-1-0.448-1-1s0.448-1,1-1h8c0.552,0,1,0.448,1,1S26.052,34,25.5,34z
		 M31.5,29h-10c-0.552,0-1-0.448-1-1s0.448-1,1-1h10c0.552,0,1,0.448,1,1S32.052,29,31.5,29z M44.5,29h-9c-0.552,0-1-0.448-1-1
		s0.448-1,1-1h9c0.552,0,1,0.448,1,1S45.052,29,44.5,29z M44.5,24h-6c-0.552,0-1-0.448-1-1s0.448-1,1-1h6c0.552,0,1,0.448,1,1
		S45.052,24,44.5,24z M44.5,19h-2c-0.552,0-1-0.448-1-1s0.448-1,1-1h2c0.552,0,1,0.448,1,1S45.052,19,44.5,19z M37.5,3.391
		c0-0.458,0.553-0.687,0.877-0.363l10.095,10.095C48.796,13.447,48.567,14,48.109,14H37.5V3.391z M30.5,17h8c0.552,0,1,0.448,1,1
		s-0.448,1-1,1h-8c-0.552,0-1-0.448-1-1S29.948,17,30.5,17z M25.79,17.29c0.37-0.37,1.05-0.37,1.42,0c0.18,0.19,0.29,0.45,0.29,0.71
		c0,0.26-0.11,0.52-0.29,0.71C27.02,18.89,26.76,19,26.5,19c-0.26,0-0.52-0.11-0.71-0.29c-0.18-0.19-0.29-0.45-0.29-0.71
		C25.5,17.74,25.61,17.48,25.79,17.29z M13.5,12h6c0.552,0,1,0.448,1,1s-0.448,1-1,1h-6c-0.552,0-1-0.448-1-1S12.948,12,13.5,12z
		 M13.5,17h9c0.552,0,1,0.448,1,1s-0.448,1-1,1h-9c-0.552,0-1-0.448-1-1S12.948,17,13.5,17z M13.5,22h22c0.552,0,1,0.448,1,1
		s-0.448,1-1,1h-22c-0.552,0-1-0.448-1-1S12.948,22,13.5,22z M13.5,27h4c0.552,0,1,0.448,1,1s-0.448,1-1,1h-4c-0.552,0-1-0.448-1-1
		S12.948,27,13.5,27z M12.79,32.29c0.37-0.37,1.05-0.37,1.42,0c0.18,0.19,0.29,0.44,0.29,0.71c0,0.26-0.11,0.52-0.29,0.71
		C14.02,33.89,13.76,34,13.5,34c-0.26,0-0.52-0.11-0.71-0.29c-0.18-0.19-0.29-0.45-0.29-0.71C12.5,32.74,12.61,32.48,12.79,32.29z"
		/>
	<path d="M6.5,41v15c0,1.009,1.22,2,2.463,2h40.074c1.243,0,2.463-0.991,2.463-2V41H6.5z M24.233,50.808
		c-0.178,0.588-0.403,1.08-0.677,1.477s-0.581,0.709-0.923,0.937s-0.672,0.398-0.991,0.513c-0.319,0.114-0.611,0.187-0.875,0.219
		C20.503,53.984,20.307,54,20.18,54h-3.814V43.924H19.4c0.848,0,1.593,0.135,2.235,0.403s1.176,0.627,1.6,1.073
		s0.74,0.955,0.95,1.524c0.209,0.569,0.314,1.155,0.314,1.757C24.5,49.511,24.411,50.22,24.233,50.808z M34.153,51.156
		c-0.214,0.647-0.511,1.185-0.889,1.613c-0.378,0.429-0.82,0.752-1.326,0.971s-1.06,0.328-1.661,0.328s-1.155-0.109-1.661-0.328
		s-0.948-0.542-1.326-0.971c-0.378-0.429-0.675-0.966-0.889-1.613c-0.214-0.647-0.321-1.395-0.321-2.242s0.107-1.593,0.321-2.235
		c0.214-0.643,0.51-1.178,0.889-1.606c0.378-0.429,0.82-0.754,1.326-0.978s1.06-0.335,1.661-0.335s1.155,0.111,1.661,0.335
		s0.948,0.549,1.326,0.978c0.378,0.429,0.674,0.964,0.889,1.606c0.214,0.643,0.321,1.388,0.321,2.235S34.367,50.509,34.153,51.156z
		 M38.487,50.664c0.132,0.483,0.314,0.877,0.547,1.183s0.497,0.528,0.793,0.67c0.296,0.142,0.608,0.212,0.937,0.212
		s0.636-0.06,0.923-0.178s0.549-0.31,0.786-0.574l1.135,0.998c-0.374,0.364-0.798,0.638-1.271,0.82
		c-0.474,0.183-0.984,0.273-1.531,0.273c-0.602,0-1.155-0.109-1.661-0.328s-0.948-0.542-1.326-0.971
		c-0.378-0.429-0.675-0.966-0.889-1.613c-0.214-0.647-0.321-1.395-0.321-2.242s0.107-1.593,0.321-2.235
		c0.214-0.643,0.51-1.178,0.889-1.606c0.378-0.429,0.822-0.754,1.333-0.978c0.51-0.224,1.062-0.335,1.654-0.335
		c0.547,0,1.057,0.091,1.531,0.273c0.474,0.183,0.897,0.456,1.271,0.82l-1.135,1.012c-0.228-0.265-0.481-0.456-0.759-0.574
		c-0.278-0.118-0.567-0.178-0.868-0.178c-0.337,0-0.659,0.063-0.964,0.191c-0.306,0.128-0.579,0.344-0.82,0.649
		c-0.242,0.306-0.431,0.699-0.567,1.183s-0.21,1.075-0.219,1.777C38.284,49.598,38.355,50.181,38.487,50.664z"/>
	<path d="M32.048,45.988c-0.232-0.31-0.497-0.533-0.793-0.67c-0.296-0.137-0.608-0.205-0.937-0.205
		c-0.337,0-0.659,0.063-0.964,0.191c-0.306,0.128-0.579,0.344-0.82,0.649c-0.242,0.306-0.431,0.699-0.567,1.183
		s-0.21,1.075-0.219,1.777c0.009,0.684,0.08,1.267,0.212,1.75c0.132,0.483,0.314,0.877,0.547,1.183s0.497,0.528,0.793,0.67
		c0.296,0.142,0.608,0.212,0.937,0.212c0.337,0,0.658-0.066,0.964-0.198c0.305-0.132,0.579-0.349,0.82-0.649
		c0.241-0.301,0.431-0.695,0.567-1.183s0.209-1.082,0.219-1.784c-0.009-0.684-0.08-1.265-0.212-1.743
		C32.462,46.692,32.28,46.298,32.048,45.988z"/>
</g>
</svg>